<?xml version="1.0" encoding="UTF-8"?>
<svg id="Layer_2" xmlns="http://www.w3.org/2000/svg" viewBox="0 0 620.39 264.51">
  <g id="Layer_1-2" data-name="Layer_1">
    <g>
      <g>
        <path d="M0,102.52h16.59l8.89,34.98v-34.98h17.91v87.14h-17.91l-9.38-36.42v36.42H0v-87.14Z"/>
        <path d="M54.21,102.52h36.9v16.23h-18.99v20.67h14.42v15.02h-14.42v18.99h18.99l-.09,16.23h-36.81v-87.14Z"/>
        <path d="M100.73,102.52h17.43v87.14h-17.43v-87.14Z"/>
        <path d="M128.97,113.1c0-6.37,3.49-10.58,10.34-10.58h33.5v16.23h-24.73c-1.2,0-1.56.6-1.56,1.68v51.68c0,1.08.36,1.68,1.56,1.68h7.93v-34.38h16.95v50.24h-30.41c-9.98,0-13.58-3.85-13.58-13.46v-63.1Z"/>
        <path d="M228.49,189.66h-17.79v-34.86h-9.5v34.86h-17.79v-87.14h17.79v37.26h9.5v-37.26h17.79v87.14Z"/>
        <path d="M283.67,137.02c0,4.33-1.44,7.69-6.01,8.89,4.81.24,6.85,3.85,6.85,7.69v22.6c0,9.62-3.61,13.46-13.58,13.46h-31.61v-87.14h34.01c6.85,0,10.34,4.21,10.34,10.58v23.92ZM256.62,117.79v22.84h8.17c1.2,0,2.16-.72,2.16-2.28v-18.87c0-1.08-.36-1.68-1.56-1.68h-8.77ZM267.2,156.37c0-1.92-1.08-2.52-2.64-2.52h-7.93v20.55h8.77c1.44,0,1.8-.48,1.8-1.8v-16.23Z"/>
        <path d="M341.29,177.28c0,6.61-2.76,12.38-12.5,12.38h-20.97c-9.74,0-12.5-5.77-12.5-12.38v-63.46c0-6.85,3.61-11.3,11.78-11.3h22.41c8.17,0,11.78,4.45,11.78,11.3v63.46ZM314.44,117.79c-1.2,0-1.56.6-1.56,1.68v53.13c0,1.32.24,1.8,1.68,1.8h7.38c1.44,0,1.68-.48,1.68-1.8v-53.13c0-1.08-.36-1.68-1.56-1.68h-7.63Z"/>
        <path d="M396.95,154.21c0,3.85-2.77,7.69-7.81,7.69l9.13,27.76h-18.03l-8.41-27.76h-2.28v27.76h-17.43v-87.14h33.05c8.17,0,11.78,4.45,11.78,11.3v40.38ZM369.54,117.79v30.05h8.53c1.32,0,1.68-.48,1.68-1.8v-26.44c0-1.08-.48-1.8-1.68-1.8h-8.53Z"/>
        <path d="M453.08,189.66h-17.79v-34.86h-9.5v34.86h-17.79v-87.14h17.79v37.26h9.5v-37.26h17.79v87.14Z"/>
        <path d="M509.09,177.28c0,6.61-2.77,12.38-12.5,12.38h-20.19c-9.74,0-12.5-5.77-12.5-12.38v-63.46c0-6.85,3.61-11.3,11.78-11.3h21.64c8.17,0,11.78,4.45,11.78,11.3v63.46ZM483.01,117.79c-1.2,0-1.56.6-1.56,1.68v53.13c0,1.32.24,1.8,1.68,1.8h6.61c1.44,0,1.68-.48,1.68-1.8v-53.13c0-1.08-.36-1.68-1.56-1.68h-6.85Z"/>
        <path d="M565.1,177.28c0,6.61-2.76,12.38-12.5,12.38h-20.19c-9.74,0-12.5-5.77-12.5-12.38v-63.46c0-6.85,3.61-11.3,11.78-11.3h21.63c8.17,0,11.78,4.45,11.78,11.3v63.46ZM539.02,117.79c-1.2,0-1.56.6-1.56,1.68v53.13c0,1.32.24,1.8,1.68,1.8h6.61c1.44,0,1.68-.48,1.68-1.8v-53.13c0-1.08-.36-1.68-1.56-1.68h-6.85Z"/>
        <path d="M620.39,176.2c0,9.62-3.61,13.46-13.58,13.46h-30.89v-87.14h34.13c6.85,0,10.34,4.21,10.34,10.58v63.1ZM593.23,117.79v56.61h8.17c1.44,0,1.68-.48,1.68-1.8v-53.13c0-1.08-.36-1.68-1.56-1.68h-8.29Z"/>
      </g>
      <g>
        <path d="M50.66,257.03c0,3.99-1.67,7.47-7.55,7.47h-12.19c-5.88,0-7.55-3.48-7.55-7.47v-38.3c0-4.13,2.18-6.82,7.11-6.82h13.06c4.93,0,7.11,2.68,7.11,6.82v38.3ZM34.92,221.12c-.73,0-.94.36-.94,1.02v32.07c0,.8.14,1.09,1.01,1.09h3.99c.87,0,1.02-.29,1.02-1.09v-32.07c0-.65-.22-1.02-.94-1.02h-4.13Z"/>
        <path d="M84.25,243.1c0,2.32-1.67,4.64-4.72,4.64l5.51,16.76h-10.88l-5.08-16.76h-1.38v16.76h-10.52v-52.6h19.95c4.93,0,7.11,2.68,7.11,6.82v24.38ZM67.7,221.12v18.14h5.15c.8,0,1.02-.29,1.02-1.09v-15.96c0-.65-.29-1.09-1.02-1.09h-5.15Z"/>
        <path d="M100.49,257.98l-.94,6.53h-10.59l9.5-52.6h11.24l9.5,52.6h-10.59l-.94-6.53h-7.18ZM101.65,249.63h4.86l-2.39-18.64-2.47,18.64Z"/>
        <path d="M124.28,211.91h10.81v42.8h10.59l.06,9.79h-21.46v-52.6Z"/>
        <path d="M189.57,264.51h-10.74v-21.04h-5.73v21.04h-10.74v-52.6h10.74v22.49h5.73v-22.49h10.74v52.6Z"/>
        <path d="M196.1,211.91h10.52v52.6h-10.52v-52.6Z"/>
        <path d="M213.82,264.51l.05-9.79h11.32c.94,0,1.23-.29,1.23-1.09v-9.58c0-1.45-.51-1.52-1.96-1.52h-5.44c-3.12,0-5.88-.73-5.88-5.95v-17.85c0-4.13,2.18-6.82,7.11-6.82h16.29l.03,9.79h-11.9c-.87,0-1.31.36-1.31,1.16v9.58c0,1.09.51,1.38,1.6,1.38h6.6c3.34,0,5.22,1.45,5.22,5.37v17.34c0,5.8-2.03,7.98-8.05,7.98h-14.92Z"/>
        <path d="M266,211.91l-.05,9.79h-7.04v42.8h-10.74v-42.8h-7.04v-9.79s24.86,0,24.86,0Z"/>
        <path d="M298.3,257.03c0,3.99-1.67,7.47-7.55,7.47h-12.19c-5.88,0-7.55-3.48-7.55-7.47v-38.3c0-4.13,2.18-6.82,7.11-6.82h13.06c4.93,0,7.11,2.68,7.11,6.82v38.3ZM282.56,221.12c-.73,0-.94.36-.94,1.02v32.07c0,.8.14,1.09,1.01,1.09h3.99c.87,0,1.02-.29,1.02-1.09v-32.07c0-.65-.22-1.02-.94-1.02h-4.13Z"/>
        <path d="M331.89,243.1c0,2.32-1.67,4.64-4.72,4.64l5.51,16.76h-10.88l-5.08-16.76h-1.38v16.76h-10.52v-52.6h19.95c4.93,0,7.11,2.68,7.11,6.82v24.38ZM315.34,221.12v18.14h5.15c.8,0,1.02-.29,1.02-1.09v-15.96c0-.65-.29-1.09-1.02-1.09h-5.15Z"/>
        <path d="M357.93,264.51h-11.1v-13.35l-10.08-39.25h10.88l4.72,24.81,4.79-24.81h10.88l-10.08,39.25v13.35Z"/>
        <path d="M405,211.91c4.13,0,6.24,2.54,6.24,6.38v25.17c0,3.99-1.6,7.04-7.47,7.04h-9v14h-10.45v-52.6h20.68ZM394.77,221.12v20.68h5.22c.87,0,1.02-.29,1.02-1.09v-18.57c0-.65-.22-1.02-.94-1.02h-5.3Z"/>
        <path d="M444.61,243.1c0,2.32-1.67,4.64-4.71,4.64l5.51,16.76h-10.88l-5.08-16.76h-1.38v16.76h-10.52v-52.6h19.95c4.93,0,7.11,2.68,7.11,6.82v24.38ZM428.07,221.12v18.14h5.15c.8,0,1.02-.29,1.02-1.09v-15.96c0-.65-.29-1.09-1.02-1.09h-5.15Z"/>
        <path d="M478.56,257.03c0,3.99-1.67,7.47-7.54,7.47h-12.19c-5.88,0-7.54-3.48-7.54-7.47v-38.3c0-4.13,2.18-6.82,7.11-6.82h13.06c4.93,0,7.11,2.68,7.11,6.82v38.3ZM462.81,221.12c-.73,0-.94.36-.94,1.02v32.07c0,.8.15,1.09,1.02,1.09h3.99c.87,0,1.01-.29,1.01-1.09v-32.07c0-.65-.22-1.02-.94-1.02h-4.13Z"/>
        <path d="M484.86,234.18h10.23v19.88c0,.65.22,1.02.94,1.02h3.84c.73,0,.94-.44.94-1.09v-32.28h-11.39v-9.79h21.98v45.05c0,4.13-2.54,7.54-7.11,7.54h-12.48c-4.13,0-6.96-2.61-6.96-6.75v-23.58Z"/>
        <path d="M517.94,211.91h22.29l-.02,9.79h-11.46v12.48h8.71v9.07h-8.71v11.46h11.43l.02,9.79h-22.26v-52.6Z"/>
        <path d="M554.21,264.51c-6.02,0-8.2-2.32-8.2-8.13v-38.01c0-4.13,2.68-6.46,6.17-6.46h15.75l-.08,9.79h-10.08c-.73,0-.94.36-.94,1.02v30.98c0,.65.22,1.02.94,1.02h10.08v9.79s-13.64,0-13.64,0Z"/>
        <path d="M597.01,211.91v9.79h-7.04v42.8h-10.74v-42.8h-7.04l.04-9.79h24.77Z"/>
      </g>
      <g>
        <path d="M204.42,0h36.81l.09,16.23h-18.99v20.67h14.42v15.02h-14.42v35.22h-17.91V0Z"/>
        <path d="M250.34,0h17.91v70.91h17.55l.05,16.23h-35.51V0Z"/>
        <path d="M294.81,0h17.43v87.14h-17.43V0Z"/>
        <path d="M323.06,0h16.59l8.89,34.98V0h17.91v87.14h-17.91l-9.37-36.42v36.42h-16.11V0Z"/>
        <path d="M415.94,0l.03,16.23h-11.66v70.91h-17.79V16.23h-11.66l.03-16.23h41.06Z"/>
      </g>
    </g>
  </g>
</svg>