<?xml version="1.0" encoding="UTF-8"?>
<svg id="Layer_1" xmlns="http://www.w3.org/2000/svg" viewBox="0 0 1080 1080">
  <g>
    <path d="M210.8,510.27h16.59l8.89,34.98v-34.98h17.91v87.14h-17.91l-9.38-36.42v36.42h-16.11v-87.14Z"/>
    <path d="M265.01,510.27h36.9v16.23h-18.99v20.67h14.42v15.02h-14.42v18.99h18.99l-.09,16.23h-36.81v-87.14Z"/>
    <path d="M311.53,510.27h17.43v87.14h-17.43v-87.14Z"/>
    <path d="M339.78,520.85c0-6.37,3.49-10.58,10.34-10.58h33.5v16.23h-24.73c-1.2,0-1.56.6-1.56,1.68v51.68c0,1.08.36,1.68,1.56,1.68h7.93v-34.38h16.95v50.24h-30.41c-9.98,0-13.58-3.85-13.58-13.46v-63.1Z"/>
    <path d="M439.3,597.41h-17.79v-34.86h-9.5v34.86h-17.79v-87.14h17.79v37.26h9.5v-37.26h17.79v87.14Z"/>
    <path d="M494.47,544.77c0,4.33-1.44,7.69-6.01,8.89,4.81.24,6.85,3.85,6.85,7.69v22.6c0,9.62-3.61,13.46-13.58,13.46h-31.61v-87.14h34.01c6.85,0,10.34,4.21,10.34,10.58v23.92ZM467.43,525.54v22.84h8.17c1.2,0,2.16-.72,2.16-2.28v-18.87c0-1.08-.36-1.68-1.56-1.68h-8.77ZM478,564.12c0-1.92-1.08-2.52-2.64-2.52h-7.93v20.55h8.77c1.44,0,1.8-.48,1.8-1.8v-16.23Z"/>
    <path d="M590.1,585.03c0,6.61-2.76,12.38-12.5,12.38h-58.97c-9.74,0-12.5-5.77-12.5-12.38v-63.46c0-6.85,3.61-11.3,11.78-11.3h60.41c8.17,0,11.78,4.45,11.78,11.3v63.46ZM525.24,525.54c-1.2,0-1.56.6-1.56,1.68v53.13c0,1.32.24,1.8,1.68,1.8h45.38c1.44,0,1.68-.48,1.68-1.8v-53.13c0-1.08-.36-1.68-1.56-1.68h-45.63Z"/>
    <path d="M645.75,561.95c0,3.85-2.77,7.69-7.81,7.69l9.13,27.76h-18.03l-8.41-27.76h-2.28v27.76h-17.43v-87.14h33.05c8.17,0,11.78,4.45,11.78,11.3v40.38ZM618.34,525.54v30.05h8.53c1.32,0,1.68-.48,1.68-1.8v-26.44c0-1.08-.48-1.8-1.68-1.8h-8.53Z"/>
    <path d="M701.88,597.41h-17.79v-34.86h-9.5v34.86h-17.79v-87.14h17.79v37.26h9.5v-37.26h17.79v87.14Z"/>
    <path d="M757.89,585.03c0,6.61-2.77,12.38-12.5,12.38h-20.19c-9.74,0-12.5-5.77-12.5-12.38v-63.46c0-6.85,3.61-11.3,11.78-11.3h21.64c8.17,0,11.78,4.45,11.78,11.3v63.46ZM731.81,525.54c-1.2,0-1.56.6-1.56,1.68v53.13c0,1.32.24,1.8,1.68,1.8h6.61c1.44,0,1.68-.48,1.68-1.8v-53.13c0-1.08-.36-1.68-1.56-1.68h-6.85Z"/>
    <path d="M813.91,585.03c0,6.61-2.76,12.38-12.5,12.38h-20.19c-9.74,0-12.5-5.77-12.5-12.38v-63.46c0-6.85,3.61-11.3,11.78-11.3h21.63c8.17,0,11.78,4.45,11.78,11.3v63.46ZM787.82,525.54c-1.2,0-1.56.6-1.56,1.68v53.13c0,1.32.24,1.8,1.68,1.8h6.61c1.44,0,1.68-.48,1.68-1.8v-53.13c0-1.08-.36-1.68-1.56-1.68h-6.85Z"/>
    <path d="M869.2,583.95c0,9.62-3.61,13.46-13.58,13.46h-30.89v-87.14h34.13c6.85,0,10.34,4.21,10.34,10.58v63.1ZM842.03,525.54v56.61h8.17c1.44,0,1.68-.48,1.68-1.8v-53.13c0-1.08-.36-1.68-1.56-1.68h-8.29Z"/>
  </g>
  <g>
    <path d="M280.46,664.78c0,3.99-1.67,7.47-7.55,7.47h-12.19c-5.88,0-7.55-3.48-7.55-7.47v-38.3c0-4.13,2.18-6.82,7.11-6.82h13.06c4.93,0,7.11,2.68,7.11,6.82v38.3ZM264.72,628.87c-.73,0-.94.36-.94,1.02v32.07c0,.8.14,1.09,1.01,1.09h3.99c.87,0,1.02-.29,1.02-1.09v-32.07c0-.65-.22-1.02-.94-1.02h-4.13Z"/>
    <path d="M314.05,650.85c0,2.32-1.67,4.64-4.72,4.64l5.51,16.76h-10.88l-5.08-16.76h-1.38v16.76h-10.52v-52.6h19.95c4.93,0,7.11,2.68,7.11,6.82v24.38ZM297.51,628.87v18.14h5.15c.8,0,1.02-.29,1.02-1.09v-15.96c0-.65-.29-1.09-1.02-1.09h-5.15Z"/>
    <path d="M330.3,665.72l-.94,6.53h-10.59l9.5-52.6h11.24l9.5,52.6h-10.59l-.94-6.53h-7.18ZM331.46,657.38h4.86l-2.39-18.64-2.47,18.64Z"/>
    <path d="M354.09,619.66h10.81v42.8h10.59l.06,9.79h-21.46v-52.6Z"/>
    <path d="M419.37,672.25h-10.74v-21.04h-5.73v21.04h-10.74v-52.6h10.74v22.49h5.73v-22.49h10.74v52.6Z"/>
    <path d="M425.9,619.66h10.52v52.6h-10.52v-52.6Z"/>
    <path d="M443.62,672.25l.05-9.79h11.32c.94,0,1.23-.29,1.23-1.09v-9.58c0-1.45-.51-1.52-1.96-1.52h-5.44c-3.12,0-5.88-.73-5.88-5.95v-17.85c0-4.13,2.18-6.82,7.11-6.82h16.29l.03,9.79h-11.9c-.87,0-1.31.36-1.31,1.16v9.58c0,1.09.51,1.38,1.6,1.38h6.6c3.34,0,5.22,1.45,5.22,5.37v17.34c0,5.8-2.03,7.98-8.05,7.98h-14.92Z"/>
    <path d="M495.8,619.66l-.05,9.79h-7.04v42.8h-10.74v-42.8h-7.04v-9.79s24.86,0,24.86,0Z"/>
    <path d="M528.1,664.78c0,3.99-1.67,7.47-7.55,7.47h-12.19c-5.88,0-7.55-3.48-7.55-7.47v-38.3c0-4.13,2.18-6.82,7.11-6.82h13.06c4.93,0,7.11,2.68,7.11,6.82v38.3ZM512.36,628.87c-.73,0-.94.36-.94,1.02v32.07c0,.8.14,1.09,1.01,1.09h3.99c.87,0,1.02-.29,1.02-1.09v-32.07c0-.65-.22-1.02-.94-1.02h-4.13Z"/>
    <path d="M561.69,650.85c0,2.32-1.67,4.64-4.72,4.64l5.51,16.76h-10.88l-5.08-16.76h-1.38v16.76h-10.52v-52.6h19.95c4.93,0,7.11,2.68,7.11,6.82v24.38ZM545.15,628.87v18.14h5.15c.8,0,1.02-.29,1.02-1.09v-15.96c0-.65-.29-1.09-1.02-1.09h-5.15Z"/>
    <path d="M587.73,672.25h-11.1v-13.35l-10.08-39.25h10.88l4.72,24.81,4.79-24.81h10.88l-10.08,39.25v13.35Z"/>
    <path d="M634.81,619.66c4.13,0,6.24,2.54,6.24,6.38v25.17c0,3.99-1.6,7.04-7.47,7.04h-9v14h-10.45v-52.6h20.68ZM624.58,628.87v20.68h5.22c.87,0,1.02-.29,1.02-1.09v-18.57c0-.65-.22-1.02-.94-1.02h-5.3Z"/>
    <path d="M674.41,650.85c0,2.32-1.67,4.64-4.71,4.64l5.51,16.76h-10.88l-5.08-16.76h-1.38v16.76h-10.52v-52.6h19.95c4.93,0,7.11,2.68,7.11,6.82v24.38ZM657.87,628.87v18.14h5.15c.8,0,1.02-.29,1.02-1.09v-15.96c0-.65-.29-1.09-1.02-1.09h-5.15Z"/>
    <path d="M708.36,664.78c0,3.99-1.67,7.47-7.54,7.47h-12.19c-5.88,0-7.54-3.48-7.54-7.47v-38.3c0-4.13,2.18-6.82,7.11-6.82h13.06c4.93,0,7.11,2.68,7.11,6.82v38.3ZM692.62,628.87c-.73,0-.94.36-.94,1.02v32.07c0,.8.15,1.09,1.02,1.09h3.99c.87,0,1.01-.29,1.01-1.09v-32.07c0-.65-.22-1.02-.94-1.02h-4.13Z"/>
    <path d="M714.67,641.93h10.23v19.88c0,.65.22,1.02.94,1.02h3.84c.73,0,.94-.44.94-1.09v-32.28h-11.39v-9.79h21.98v45.05c0,4.13-2.54,7.54-7.11,7.54h-12.48c-4.13,0-6.96-2.61-6.96-6.75v-23.58Z"/>
    <path d="M747.74,619.66h22.29l-.02,9.79h-11.46v12.48h8.71v9.07h-8.71v11.46h11.43l.02,9.79h-22.26v-52.6Z"/>
    <path d="M784.01,672.25c-6.02,0-8.2-2.32-8.2-8.13v-38.01c0-4.13,2.68-6.46,6.17-6.46h15.75l-.08,9.79h-10.08c-.73,0-.94.36-.94,1.02v30.98c0,.65.22,1.02.94,1.02h10.08v9.79s-13.64,0-13.64,0Z"/>
    <path d="M826.81,619.66v9.79h-7.04v42.8h-10.74v-42.8h-7.04l.04-9.79h24.77Z"/>
  </g>
  <g>
    <path d="M434.23,407.75h36.81l.09,16.23h-18.99v20.67h14.42v15.02h-14.42v35.22h-17.91v-87.14Z"/>
    <path d="M480.14,407.75h17.91v70.91h17.55l.05,16.23h-35.51v-87.14Z"/>
    <path d="M524.62,407.75h17.43v87.14h-17.43v-87.14Z"/>
    <path d="M552.86,407.75h16.59l8.89,34.98v-34.98h17.91v87.14h-17.91l-9.37-36.42v36.42h-16.11v-87.14Z"/>
    <path d="M645.75,407.75l.03,16.23h-11.66v70.91h-17.79v-70.91h-11.66l.03-16.23h41.06Z"/>
  </g>
</svg>