<?xml version="1.0" encoding="UTF-8"?>
<svg id="Layer_1" xmlns="http://www.w3.org/2000/svg" viewBox="0 0 1080 1080">
  <defs>
    <style>
      .cls-1 {
        fill: #fbb03b;
      }
    </style>
  </defs>
  <g>
    <path d="M200.4,509.33h17.11l9.18,36.08v-36.08h18.47v89.89h-18.47l-9.67-37.57v37.57h-16.62v-89.89Z"/>
    <path d="M256.32,509.33h38.07v16.74h-19.59v21.33h14.88v15.5h-14.88v19.59h19.59l-.09,16.74h-37.98v-89.89Z"/>
    <path d="M304.31,509.33h17.98v89.89h-17.98v-89.89Z"/>
    <path d="M333.45,520.24c0-6.57,3.6-10.91,10.66-10.91h34.56v16.74h-25.51c-1.24,0-1.61.62-1.61,1.74v53.32c0,1.12.37,1.74,1.61,1.74h8.18v-35.46h17.48v51.83h-31.37c-10.29,0-14.01-3.97-14.01-13.89v-65.1Z"/>
    <path d="M436.11,599.23h-18.35v-35.96h-9.8v35.96h-18.35v-89.89h18.35v38.44h9.8v-38.44h18.35v89.89Z"/>
    <path d="M493.03,544.92c0,4.46-1.49,7.94-6.2,9.18,4.96.25,7.07,3.97,7.07,7.94v23.31c0,9.92-3.72,13.89-14.01,13.89h-32.61v-89.89h35.09c7.07,0,10.66,4.34,10.66,10.91v24.67ZM465.13,525.08v23.56h8.43c1.24,0,2.23-.74,2.23-2.36v-19.47c0-1.12-.37-1.74-1.61-1.74h-9.05ZM476.04,564.88c0-1.98-1.12-2.6-2.73-2.6h-8.18v21.2h9.05c1.49,0,1.86-.5,1.86-1.86v-16.74Z"/>
    <path class="cls-1" d="M591.68,586.45c0,6.82-2.85,12.77-12.9,12.77h-60.83c-10.04,0-12.9-5.95-12.9-12.77v-65.47c0-7.07,3.72-11.66,12.15-11.66h62.32c8.43,0,12.15,4.59,12.15,11.66v65.47ZM524.77,525.08c-1.24,0-1.61.62-1.61,1.74v54.8c0,1.36.25,1.86,1.74,1.86h46.82c1.49,0,1.74-.5,1.74-1.86v-54.8c0-1.12-.37-1.74-1.61-1.74h-47.07Z"/>
    <path d="M649.09,562.65c0,3.97-2.85,7.94-8.06,7.94l9.42,28.64h-18.6l-8.68-28.64h-2.36v28.64h-17.98v-89.89h34.1c8.43,0,12.15,4.59,12.15,11.66v41.66ZM620.82,525.08v31h8.8c1.36,0,1.74-.5,1.74-1.86v-27.28c0-1.12-.5-1.86-1.74-1.86h-8.8Z"/>
    <path d="M707,599.23h-18.35v-35.96h-9.8v35.96h-18.35v-89.89h18.35v38.44h9.8v-38.44h18.35v89.89Z"/>
    <path d="M764.78,586.45c0,6.82-2.85,12.77-12.9,12.77h-20.83c-10.04,0-12.9-5.95-12.9-12.77v-65.47c0-7.07,3.72-11.66,12.15-11.66h22.32c8.43,0,12.15,4.59,12.15,11.66v65.47ZM737.88,525.08c-1.24,0-1.61.62-1.61,1.74v54.8c0,1.36.25,1.86,1.74,1.86h6.82c1.49,0,1.74-.5,1.74-1.86v-54.8c0-1.12-.37-1.74-1.61-1.74h-7.07Z"/>
    <path d="M822.56,586.45c0,6.82-2.85,12.77-12.9,12.77h-20.83c-10.04,0-12.9-5.95-12.9-12.77v-65.47c0-7.07,3.72-11.66,12.15-11.66h22.32c8.43,0,12.15,4.59,12.15,11.66v65.47ZM795.66,525.08c-1.24,0-1.61.62-1.61,1.74v54.8c0,1.36.25,1.86,1.74,1.86h6.82c1.49,0,1.74-.5,1.74-1.86v-54.8c0-1.12-.37-1.74-1.61-1.74h-7.07Z"/>
    <path d="M879.6,585.34c0,9.92-3.72,13.89-14.01,13.89h-31.87v-89.89h35.21c7.07,0,10.66,4.34,10.66,10.91v65.1ZM851.58,525.08v58.4h8.43c1.49,0,1.74-.5,1.74-1.86v-54.8c0-1.12-.37-1.74-1.61-1.74h-8.56Z"/>
  </g>
  <g>
    <path class="cls-1" d="M272.26,668.72c0,4.12-1.72,7.71-7.78,7.71h-12.57c-6.06,0-7.78-3.59-7.78-7.71v-39.51c0-4.27,2.25-7.03,7.33-7.03h13.47c5.09,0,7.33,2.77,7.33,7.03v39.51ZM256.02,631.68c-.75,0-.97.37-.97,1.05v33.08c0,.82.15,1.12,1.05,1.12h4.12c.9,0,1.05-.3,1.05-1.12v-33.08c0-.67-.22-1.05-.97-1.05h-4.27Z"/>
    <path class="cls-1" d="M306.91,654.36c0,2.39-1.72,4.79-4.86,4.79l5.69,17.29h-11.23l-5.24-17.29h-1.42v17.29h-10.85v-54.26h20.58c5.09,0,7.33,2.77,7.33,7.03v25.15ZM289.84,631.68v18.71h5.31c.82,0,1.05-.3,1.05-1.12v-16.46c0-.67-.3-1.12-1.05-1.12h-5.31Z"/>
    <path class="cls-1" d="M323.67,669.7l-.97,6.74h-10.93l9.8-54.26h11.6l9.8,54.26h-10.93l-.97-6.74h-7.41ZM324.86,661.09h5.01l-2.47-19.23-2.54,19.23Z"/>
    <path class="cls-1" d="M348.21,622.18h11.15v44.15h10.93l.06,10.1h-22.14v-54.26Z"/>
    <path class="cls-1" d="M415.56,676.43h-11.08v-21.7h-5.91v21.7h-11.08v-54.26h11.08v23.2h5.91v-23.2h11.08v54.26Z"/>
    <path class="cls-1" d="M422.29,622.18h10.85v54.26h-10.85v-54.26Z"/>
    <path class="cls-1" d="M440.57,676.43l.05-10.1h11.68c.97,0,1.27-.3,1.27-1.12v-9.88c0-1.5-.52-1.57-2.02-1.57h-5.61c-3.22,0-6.06-.75-6.06-6.14v-18.41c0-4.27,2.25-7.03,7.33-7.03h16.81l.03,10.1h-12.27c-.9,0-1.35.37-1.35,1.2v9.88c0,1.12.52,1.42,1.65,1.42h6.81c3.44,0,5.39,1.5,5.39,5.54v17.89c0,5.99-2.1,8.23-8.31,8.23h-15.39Z"/>
    <path class="cls-1" d="M494.4,622.18l-.05,10.1h-7.26v44.15h-11.08v-44.15h-7.26v-10.1s25.64,0,25.64,0Z"/>
    <path class="cls-1" d="M527.73,668.72c0,4.12-1.72,7.71-7.78,7.71h-12.57c-6.06,0-7.78-3.59-7.78-7.71v-39.51c0-4.27,2.25-7.03,7.33-7.03h13.47c5.09,0,7.33,2.77,7.33,7.03v39.51ZM511.49,631.68c-.75,0-.97.37-.97,1.05v33.08c0,.82.15,1.12,1.05,1.12h4.12c.9,0,1.05-.3,1.05-1.12v-33.08c0-.67-.22-1.05-.97-1.05h-4.27Z"/>
    <path class="cls-1" d="M562.37,654.36c0,2.39-1.72,4.79-4.86,4.79l5.69,17.29h-11.23l-5.24-17.29h-1.42v17.29h-10.85v-54.26h20.58c5.09,0,7.33,2.77,7.33,7.03v25.15ZM545.31,631.68v18.71h5.31c.82,0,1.05-.3,1.05-1.12v-16.46c0-.67-.3-1.12-1.05-1.12h-5.31Z"/>
    <path class="cls-1" d="M589.24,676.43h-11.45v-13.77l-10.4-40.49h11.23l4.86,25.59,4.94-25.59h11.23l-10.4,40.49v13.77Z"/>
    <path class="cls-1" d="M637.8,622.18c4.27,0,6.44,2.62,6.44,6.59v25.97c0,4.12-1.65,7.26-7.71,7.26h-9.28v14.44h-10.78v-54.26h21.33ZM627.25,631.68v21.33h5.39c.9,0,1.05-.3,1.05-1.12v-19.16c0-.67-.22-1.05-.97-1.05h-5.46Z"/>
    <path class="cls-1" d="M678.66,654.36c0,2.39-1.72,4.79-4.86,4.79l5.69,17.29h-11.23l-5.24-17.29h-1.42v17.29h-10.85v-54.26h20.58c5.09,0,7.33,2.77,7.33,7.03v25.15ZM661.6,631.68v18.71h5.31c.82,0,1.05-.3,1.05-1.12v-16.46c0-.67-.3-1.12-1.05-1.12h-5.31Z"/>
    <path class="cls-1" d="M713.68,668.72c0,4.12-1.72,7.71-7.78,7.71h-12.57c-6.06,0-7.78-3.59-7.78-7.71v-39.51c0-4.27,2.25-7.03,7.33-7.03h13.47c5.09,0,7.33,2.77,7.33,7.03v39.51ZM697.44,631.68c-.75,0-.97.37-.97,1.05v33.08c0,.82.15,1.12,1.05,1.12h4.12c.9,0,1.05-.3,1.05-1.12v-33.08c0-.67-.22-1.05-.97-1.05h-4.27Z"/>
    <path class="cls-1" d="M720.19,645.15h10.55v20.51c0,.67.22,1.05.97,1.05h3.97c.75,0,.97-.45.97-1.12v-33.3h-11.75v-10.1h22.68v46.47c0,4.27-2.62,7.78-7.33,7.78h-12.87c-4.27,0-7.18-2.69-7.18-6.96v-24.32Z"/>
    <path class="cls-1" d="M754.31,622.18h23l-.02,10.1h-11.82v12.87h8.98v9.35h-8.98v11.82h11.79l.02,10.1h-22.96v-54.26Z"/>
    <path class="cls-1" d="M791.72,676.43c-6.21,0-8.46-2.39-8.46-8.38v-39.22c0-4.27,2.77-6.66,6.36-6.66h16.24l-.08,10.1h-10.4c-.75,0-.97.37-.97,1.05v31.96c0,.67.22,1.05.97,1.05h10.4v10.1s-14.07,0-14.07,0Z"/>
    <path class="cls-1" d="M835.88,622.18v10.1h-7.26v44.15h-11.08v-44.15h-7.26l.04-10.1h25.56Z"/>
  </g>
  <g>
    <path d="M430.88,403.57h37.97l.09,16.74h-19.59v21.33h14.88v15.5h-14.88v36.33h-18.47v-89.9Z"/>
    <path d="M478.25,403.57h18.48v73.16h18.1l.05,16.74h-36.63v-89.9Z"/>
    <path d="M524.13,403.57h17.98v89.9h-17.98v-89.9Z"/>
    <path d="M553.27,403.57h17.11l9.18,36.08v-36.08h18.48v89.9h-18.48l-9.67-37.57v37.57h-16.62v-89.9Z"/>
    <path d="M649.09,403.57l.03,16.74h-12.03v73.16h-18.35v-73.16h-12.03l.03-16.74h42.35Z"/>
  </g>
</svg>